<svg width="140" height="140" viewBox="0 0 140 140" fill="none" xmlns="http://www.w3.org/2000/svg">
<g clip-path="url(#clip0_25_155)">
<path d="M140 70C140 88.5652 132.625 106.37 119.497 119.497C106.37 132.625 88.5652 140 70 140C51.4348 140 33.6301 132.625 20.5025 119.497C7.37498 106.37 0 88.5652 0 70C0 68.4529 0.614582 66.9692 1.70854 65.8752C2.80251 64.7812 4.28624 64.1667 5.83333 64.1667C7.38043 64.1667 8.86416 64.7812 9.95812 65.8752C11.0521 66.9692 11.6667 68.4529 11.6667 70C11.6667 81.5372 15.0879 92.8154 21.4976 102.408C27.9074 112.001 37.0178 119.478 47.6768 123.893C58.3358 128.308 70.0647 129.463 81.3803 127.212C92.6958 124.962 103.09 119.406 111.248 111.248C119.406 103.09 124.962 92.6958 127.212 81.3803C129.463 70.0647 128.308 58.3358 123.893 47.6768C119.478 37.0178 112.001 27.9074 102.408 21.4976C92.8154 15.0879 81.5372 11.6667 70 11.6667C68.4529 11.6667 66.9692 11.0521 65.8752 9.95812C64.7812 8.86416 64.1667 7.38043 64.1667 5.83333C64.1667 4.28624 64.7812 2.80251 65.8752 1.70854C66.9692 0.614582 68.4529 0 70 0C88.559 0.020073 106.352 7.4015 119.475 20.5247C132.599 33.6479 139.98 51.441 140 70ZM59.9492 64.1667H46.6667C45.1196 64.1667 43.6358 64.7812 42.5419 65.8752C41.4479 66.9692 40.8333 68.4529 40.8333 70C40.8333 71.5471 41.4479 73.0308 42.5419 74.1248C43.6358 75.2188 45.1196 75.8333 46.6667 75.8333H59.9492C60.84 77.3805 62.075 78.7018 63.5586 79.695C65.0421 80.6881 66.7344 81.3265 68.5043 81.5605C70.2742 81.7946 72.0742 81.6181 73.7649 81.0447C75.4557 80.4714 76.9917 79.5165 78.2541 78.2541C79.5165 76.9917 80.4714 75.4557 81.0447 73.7649C81.6181 72.0742 81.7946 70.2742 81.5605 68.5043C81.3265 66.7344 80.6881 65.0421 79.695 63.5586C78.7018 62.075 77.3805 60.84 75.8333 59.9492V40.8333C75.8333 39.2862 75.2188 37.8025 74.1248 36.7085C73.0308 35.6146 71.5471 35 70 35C68.4529 35 66.9692 35.6146 65.8752 36.7085C64.7812 37.8025 64.1667 39.2862 64.1667 40.8333V59.9492C62.4192 60.9658 60.9658 62.4192 59.9492 64.1667ZM10.6575 51.24C11.8112 51.24 12.939 50.8979 13.8983 50.2569C14.8576 49.6159 15.6053 48.7049 16.0468 47.639C16.4883 46.5731 16.6038 45.4002 16.3787 44.2686C16.1537 43.1371 15.5981 42.0977 14.7823 41.2819C13.9665 40.4661 12.9271 39.9105 11.7955 39.6854C10.664 39.4603 9.49108 39.5759 8.42518 40.0174C7.35928 40.4589 6.44824 41.2066 5.80726 42.1658C5.16629 43.1251 4.82417 44.2529 4.82417 45.4067C4.82417 46.9538 5.43875 48.4375 6.53271 49.5315C7.62667 50.6254 9.1104 51.24 10.6575 51.24ZM24.6225 30.3742C25.7762 30.3742 26.904 30.032 27.8633 29.3911C28.8226 28.7501 29.5703 27.8391 30.0118 26.7732C30.4533 25.7073 30.5688 24.5344 30.3437 23.4028C30.1187 22.2712 29.5631 21.2318 28.7473 20.416C27.9315 19.6002 26.8921 19.0447 25.7605 18.8196C24.629 18.5945 23.4561 18.71 22.3902 19.1515C21.3243 19.593 20.4132 20.3407 19.7723 21.3C19.1313 22.2593 18.7892 23.3871 18.7892 24.5408C18.7892 26.0879 19.4037 27.5717 20.4977 28.6656C21.5917 29.7596 23.0754 30.3742 24.6225 30.3742ZM45.3775 16.5725C46.5312 16.5725 47.659 16.2304 48.6183 15.5894C49.5776 14.9484 50.3253 14.0374 50.7668 12.9715C51.2083 11.9056 51.3238 10.7327 51.0988 9.60114C50.8737 8.46958 50.3181 7.43018 49.5023 6.61438C48.6865 5.79857 47.6471 5.243 46.5155 5.01792C45.384 4.79284 44.2111 4.90836 43.1452 5.34987C42.0793 5.79138 41.1682 6.53905 40.5273 7.49834C39.8863 8.45763 39.5442 9.58544 39.5442 10.7392C39.5442 12.2863 40.1587 13.77 41.2527 14.864C42.3467 15.9579 43.8304 16.5725 45.3775 16.5725Z" fill="white"/>
</g>
<defs>
<clipPath id="clip0_25_155">
<rect width="140" height="140" fill="white"/>
</clipPath>
</defs>
</svg>
