<svg width="45" height="45" viewBox="0 0 45 45" fill="none" xmlns="http://www.w3.org/2000/svg">
<g clip-path="url(#clip0_68_29)">
<path fill-rule="evenodd" clip-rule="evenodd" d="M14.5114 8.42365C12.2447 8.42365 10.4072 10.2763 10.4072 12.5616V19.1379C10.4072 20.6887 11.654 21.9458 13.1922 21.9458H31.9544C33.4521 21.9458 34.6661 20.7218 34.6661 19.2118V12.6355C34.6661 10.3094 32.7958 8.42365 30.4886 8.42365H14.5114ZM27.7036 19.4335C30.0513 19.4335 31.9544 17.5148 31.9544 15.1478C31.9544 12.7808 30.0513 10.8621 27.7036 10.8621C25.3559 10.8621 23.4528 12.7808 23.4528 15.1478C23.4528 17.5148 25.3559 19.4335 27.7036 19.4335Z" fill="white"/>
<path d="M24.5521 23.9409H20.4479V34.3596H24.5521V23.9409Z" fill="white"/>
<path d="M24.259 37.6847H20.8876V43.0788H24.259V37.6847Z" fill="white"/>
<path d="M27.044 34.3596C27.4488 34.3596 27.7769 34.6904 27.7769 35.0985V36.133C27.7769 36.99 27.0878 37.6847 26.2378 37.6847H18.7622C17.9527 37.6847 17.2964 37.0231 17.2964 36.2069V35.0246C17.2964 34.6573 17.5917 34.3596 17.956 34.3596H27.044Z" fill="white"/>
<path d="M44.0472 22.5C44.0472 34.3885 34.4076 44.0394 22.5 44.0394C10.5925 44.0394 0.952774 34.3885 0.952774 22.5C0.952774 10.6115 10.5925 0.960602 22.5 0.960602C34.4076 0.960602 44.0472 10.6115 44.0472 22.5Z" stroke="white" stroke-width="2.4"/>
</g>
<defs>
<clipPath id="clip0_68_29">
<rect width="45" height="45" fill="white"/>
</clipPath>
</defs>
</svg>
